<?xml version="1.0" standalone="no"?>
<!DOCTYPE svg PUBLIC "-//W3C//DTD SVG 20010904//EN"
 "http://www.w3.org/TR/2001/REC-SVG-20010904/DTD/svg10.dtd">
<svg version="1.0" xmlns="http://www.w3.org/2000/svg"
 width="600.000000pt" height="600.000000pt" viewBox="0 0 600.000000 600.000000"
 preserveAspectRatio="xMidYMid meet">
<metadata>
Created by potrace 1.11, written by Peter Selinger 2001-2013
</metadata>
<g transform="translate(0.000000,600.000000) scale(0.100000,-0.100000)"
fill="#000000" stroke="none">
<path d="M245 5740 c-14 -15 -21 -17 -31 -9 -11 9 -15 7 -20 -5 -3 -9 -11 -16
-16 -16 -6 0 -17 -8 -24 -17 -13 -17 -14 -17 -8 2 5 16 2 15 -12 -5 -11 -14
-26 -26 -34 -28 -8 -2 -17 -8 -19 -14 -2 -6 -12 -19 -22 -29 -11 -11 -20 -22
-21 -26 -2 -5 -7 -7 -11 -5 -5 1 -6 -2 -2 -8 4 -6 1 -18 -7 -27 -11 -14 -11
-16 2 -9 11 5 10 3 -1 -6 -14 -12 -17 -36 -17 -161 0 -81 4 -147 9 -147 4 0 6
-7 2 -16 -3 -9 -1 -19 5 -23 6 -3 12 -19 15 -35 2 -16 10 -34 19 -40 8 -6 14
-19 12 -28 -1 -10 1 -17 4 -17 20 3 32 -2 27 -11 -3 -5 3 -17 15 -27 11 -10
20 -24 20 -32 0 -8 3 -12 6 -8 8 8 34 -18 34 -34 0 -7 3 -9 6 -6 7 7 54 -42
54 -55 0 -5 5 -7 12 -5 6 1 17 -9 25 -23 7 -14 13 -22 13 -18 0 11 70 -64 70
-75 0 -6 3 -8 6 -4 8 7 34 -17 34 -32 0 -6 3 -10 8 -9 10 4 72 -59 65 -66 -4
-3 -1 -6 5 -6 13 0 62 -47 62 -60 0 -5 9 -12 20 -15 11 -3 20 -11 20 -16 0 -6
5 -7 10 -4 6 3 10 -3 10 -14 0 -12 6 -21 14 -21 8 0 17 -7 20 -16 3 -8 10 -13
15 -9 6 3 8 -4 6 -16 -4 -18 -2 -19 11 -8 8 7 14 8 12 3 -4 -14 44 -64 56 -57
6 3 8 2 4 -2 -5 -5 7 -22 25 -38 17 -17 25 -27 17 -23 -8 4 -6 0 4 -8 17 -14
18 -16 3 -16 -9 0 -16 -3 -16 -7 3 -21 -2 -33 -13 -27 -7 5 -8 3 -3 -6 5 -8 1
-18 -10 -27 -11 -7 -16 -13 -12 -13 4 0 0 -11 -9 -25 -9 -14 -12 -30 -8 -37 6
-11 5 -11 -8 0 -13 10 -15 9 -13 -13 2 -17 -2 -25 -12 -25 -13 0 -13 -3 -3
-15 9 -10 9 -15 1 -15 -6 0 -18 -18 -27 -40 -9 -22 -20 -40 -25 -40 -5 0 -5
-7 -2 -17 4 -10 2 -14 -4 -10 -6 4 -9 -3 -7 -18 1 -14 -1 -23 -5 -21 -3 2 -11
-7 -18 -20 -6 -13 -7 -21 -1 -18 12 8 -13 -38 -27 -48 -6 -5 -4 -8 5 -8 12 -1
12 -3 -2 -14 -10 -7 -15 -16 -11 -19 3 -4 0 -14 -8 -24 -12 -15 -12 -16 1 -8
8 5 5 -3 -7 -19 -12 -15 -19 -34 -16 -42 3 -8 0 -14 -7 -14 -6 0 -8 -4 -5 -10
3 -5 3 -16 -1 -22 -5 -7 -10 -31 -12 -53 -2 -22 -8 -41 -13 -43 -5 -2 -9 -245
-9 -613 0 -480 3 -609 13 -609 8 0 7 -4 -3 -10 -10 -6 -11 -10 -2 -10 6 0 12
-8 12 -18 0 -10 6 -24 13 -31 6 -8 7 -11 1 -8 -6 3 -11 0 -11 -8 0 -8 4 -12 9
-9 8 5 12 -24 8 -60 -1 -12 2 -16 11 -10 9 5 10 2 6 -9 -3 -10 -2 -17 4 -17 6
0 7 -4 4 -10 -3 -5 -1 -10 4 -10 6 0 11 -11 11 -24 0 -14 5 -28 10 -31 6 -4 8
-11 5 -16 -4 -5 0 -9 7 -9 9 0 9 -3 -2 -10 -13 -8 -12 -10 4 -10 13 0 17 -5
13 -20 -3 -11 -2 -20 3 -20 4 0 10 -9 13 -20 3 -12 1 -17 -5 -14 -5 3 -4 -3 3
-14 7 -12 16 -19 20 -16 5 2 6 -5 4 -16 -2 -12 2 -23 8 -26 7 -2 14 -14 14
-27 1 -12 7 -23 13 -25 5 -2 10 -12 10 -23 0 -10 9 -28 19 -38 14 -14 16 -22
7 -31 -8 -10 -8 -11 1 -6 7 3 17 -6 25 -24 7 -16 16 -30 20 -30 4 0 5 -7 2
-15 -4 -10 0 -15 11 -15 9 0 13 -4 10 -10 -3 -5 -1 -10 6 -10 7 0 10 -3 6 -6
-3 -3 3 -16 14 -27 11 -12 17 -27 15 -34 -3 -7 2 -13 10 -13 8 0 13 -4 9 -9
-3 -5 6 -21 20 -35 14 -14 23 -26 20 -26 -3 0 8 -15 25 -32 16 -18 28 -39 25
-46 -3 -7 0 -10 5 -7 6 3 10 -2 10 -12 0 -15 2 -16 10 -3 8 12 10 11 10 -5 0
-11 8 -26 18 -33 14 -11 17 -27 16 -92 -1 -57 2 -78 10 -73 7 4 7 1 -1 -7 -9
-10 -9 -18 -1 -34 11 -20 10 -20 -7 -6 -17 14 -18 13 -11 -5 4 -11 4 -16 0
-12 -4 4 -14 1 -22 -6 -11 -8 -14 -8 -9 0 4 6 3 14 -3 18 -5 3 -10 -2 -10 -11
0 -10 -3 -14 -7 -11 -3 4 -13 1 -21 -6 -13 -10 -15 -9 -9 8 7 19 6 19 -7 2
-10 -14 -15 -15 -19 -5 -4 10 -6 10 -6 1 -1 -8 -15 -13 -35 -13 -19 0 -38 -4
-41 -10 -9 -15 -27 -12 -20 2 4 7 -2 2 -13 -12 -13 -15 -17 -29 -12 -36 6 -6
5 -16 -3 -24 -8 -9 -8 -11 0 -6 8 4 11 -11 8 -56 -2 -35 -3 -66 -4 -70 -1 -4
-8 -5 -16 -2 -8 4 -15 1 -15 -6 0 -6 -5 -8 -11 -4 -6 3 -15 0 -20 -7 -7 -12
-9 -12 -9 0 0 11 -3 11 -17 0 -15 -12 -16 -12 -8 1 6 12 5 13 -6 2 -7 -6 -23
-12 -35 -12 -13 0 -26 -4 -29 -10 -3 -5 -12 -10 -18 -10 -7 0 -6 4 3 11 12 9
11 10 -5 4 -11 -3 -24 -7 -30 -8 -15 -3 -33 -21 -28 -30 2 -4 10 -4 16 0 7 3
3 -3 -7 -15 -11 -12 -14 -22 -8 -22 7 0 12 -5 12 -11 0 -5 -4 -7 -10 -4 -6 3
-7 -1 -4 -9 3 -9 11 -13 18 -9 8 4 8 2 -1 -7 -6 -7 -9 -19 -6 -26 3 -8 -1 -14
-8 -14 -11 0 -11 -2 0 -9 13 -8 13 -12 0 -27 -12 -16 -12 -17 1 -10 8 4 6 1
-4 -8 -10 -8 -24 -12 -30 -8 -17 10 -37 11 -30 1 5 -9 -6 -11 -68 -13 -14 0
-24 -5 -20 -10 3 -5 -2 -7 -11 -3 -10 4 -17 1 -17 -6 0 -8 -4 -6 -10 3 -8 12
-10 12 -10 1 0 -11 -3 -11 -17 0 -9 8 -14 9 -10 2 4 -6 2 -13 -5 -15 -15 -5
-17 -50 -3 -60 6 -5 5 -8 -2 -8 -9 0 -10 -7 -3 -25 5 -14 6 -25 2 -25 -4 0 -8
-9 -8 -19 0 -11 3 -18 7 -15 4 2 10 -3 13 -12 4 -10 2 -13 -6 -8 -7 5 -9 2 -5
-8 4 -12 0 -15 -19 -13 -13 1 -24 -1 -24 -5 0 -4 -10 -7 -22 -6 -13 0 -22 -3
-21 -9 1 -6 -24 -10 -57 -10 -32 0 -56 -3 -53 -7 2 -5 -5 -9 -16 -9 -33 -2
-39 -4 -46 -11 -9 -9 25 -59 36 -52 5 3 9 -2 9 -11 0 -9 4 -13 10 -10 5 3 10
1 10 -4 0 -6 6 -11 14 -11 8 0 16 -5 18 -11 2 -6 16 -12 31 -12 15 0 24 -3 21
-8 -4 -8 42 -14 68 -10 5 0 8 -4 8 -10 0 -8 4 -8 14 0 10 8 16 9 21 1 3 -5 33
-10 66 -10 39 0 58 4 54 10 -8 13 17 8 28 -5 4 -7 10 -6 15 1 4 6 18 11 32 11
52 0 95 8 102 18 5 6 8 5 8 -4 0 -11 3 -11 15 -1 8 7 22 10 30 6 9 -3 13 -2
10 4 -3 6 3 11 14 12 12 0 27 1 34 2 6 1 16 7 21 15 7 11 10 11 17 0 6 -10 9
-11 9 -1 0 6 12 12 26 12 14 0 23 3 21 8 -3 4 6 8 19 9 44 4 54 6 54 13 0 4
12 5 28 3 22 -4 24 -2 12 7 -12 10 -11 11 8 7 12 -3 22 -1 22 5 0 6 7 8 15 4
8 -3 14 0 12 7 -1 7 4 11 12 9 7 -1 19 5 27 15 13 17 13 17 14 -2 1 -18 2 -18
10 2 5 13 12 23 15 23 4 0 3 -6 0 -12 -4 -7 0 -5 8 5 9 10 18 18 21 18 23 -3
36 0 32 8 -3 4 5 8 17 7 12 -1 29 5 37 14 8 8 20 15 25 16 18 1 75 28 75 35 0
4 14 10 30 14 17 4 30 11 30 16 0 6 5 7 10 4 6 -3 10 -1 10 5 0 7 7 10 15 6 8
-3 14 0 12 6 -1 7 4 13 11 14 6 1 17 2 23 3 5 0 7 7 3 14 -5 7 0 6 11 -3 10
-8 16 -10 12 -4 -4 7 1 18 10 25 12 10 14 10 9 2 -10 -19 5 -16 18 3 6 8 20
17 31 18 11 2 19 9 17 16 -1 6 2 9 8 5 10 -6 52 17 47 26 -1 2 2 1 7 -3 6 -5
15 -8 20 -8 6 0 5 4 -3 9 -11 7 -9 10 8 16 11 3 21 11 21 16 0 6 5 7 10 4 6
-3 13 1 16 9 3 9 11 13 16 10 6 -4 14 -1 18 7 13 20 43 20 63 -2 10 -10 27
-19 37 -19 11 0 20 -5 20 -11 0 -5 5 -7 10 -4 6 3 10 2 10 -4 0 -5 9 -8 20 -6
11 2 19 -1 17 -7 -1 -6 4 -13 12 -16 9 -3 11 0 6 8 -6 9 -4 11 4 6 7 -5 10
-15 6 -23 -4 -13 -3 -14 10 -3 12 10 16 9 21 -3 3 -9 15 -14 29 -12 14 1 22
-1 20 -5 -8 -12 29 -36 53 -34 12 0 22 -2 22 -6 0 -4 7 -7 15 -8 8 -1 22 -3
30 -4 8 -1 15 -7 15 -15 0 -7 5 -13 11 -13 5 0 7 5 4 10 -4 6 10 1 30 -10 20
-11 33 -15 29 -8 -4 7 2 5 13 -5 16 -14 22 -15 26 -5 4 9 6 8 6 -3 1 -9 7 -16
14 -16 25 1 97 -16 97 -23 0 -5 11 -7 25 -5 14 1 41 -6 60 -16 32 -17 71 -18
600 -19 312 0 564 3 561 8 -2 4 6 9 20 10 13 1 35 3 48 4 14 1 22 6 19 12 -4
5 1 7 10 3 9 -3 19 -2 22 4 4 5 12 9 18 8 28 -3 48 2 42 11 -3 5 0 7 8 4 8 -3
31 1 50 10 27 11 37 11 41 3 2 -7 5 -4 5 6 1 11 9 17 26 17 14 0 25 5 25 11 0
5 4 7 10 4 15 -9 52 14 43 28 -5 8 -2 8 9 -1 13 -10 17 -10 21 0 4 11 6 11 6
0 1 -8 9 -6 23 8 13 12 24 16 26 11 2 -7 9 -6 17 2 34 29 45 37 45 31 0 -3 6
-1 13 5 8 6 17 8 20 4 4 -3 7 -1 7 5 0 7 9 12 21 12 11 0 17 4 14 10 -3 5 0 7
8 4 8 -3 17 2 21 11 3 9 11 15 18 14 26 -3 39 1 33 11 -3 6 3 10 14 10 12 0
21 4 21 9 0 5 9 7 20 4 11 -3 17 -9 14 -14 -3 -5 2 -6 10 -3 9 3 16 1 16 -6 0
-6 5 -8 10 -5 6 3 10 1 10 -4 0 -6 7 -11 15 -11 8 0 15 -4 15 -10 0 -5 6 -10
14 -10 8 0 17 -7 20 -16 5 -14 9 -14 23 -3 9 8 14 9 10 3 -4 -7 1 -18 10 -25
14 -12 16 -12 9 1 -4 9 -2 8 7 -2 8 -10 17 -15 21 -11 3 4 13 -2 22 -13 8 -10
12 -12 8 -4 -7 13 -5 13 9 1 9 -7 15 -17 12 -21 -3 -5 5 -6 17 -2 14 3 19 1
14 -6 -5 -8 -2 -10 8 -6 9 3 16 1 16 -5 0 -6 7 -11 15 -11 8 0 15 -5 15 -11 0
-5 4 -8 9 -4 5 3 16 -2 24 -10 12 -11 17 -12 20 -2 3 6 6 1 6 -13 1 -14 5 -20
9 -14 5 7 14 7 29 -1 13 -7 20 -15 15 -20 -4 -4 1 -5 11 -2 9 4 17 2 17 -4 0
-6 5 -7 10 -4 6 3 10 1 10 -5 0 -6 4 -9 9 -5 6 3 14 -3 20 -12 8 -14 10 -15
11 -3 0 12 2 12 9 2 4 -7 15 -14 23 -16 9 -1 23 -8 32 -15 8 -7 20 -10 26 -6
5 3 10 1 10 -4 0 -6 9 -11 19 -11 11 0 21 -4 23 -10 2 -5 13 -11 26 -13 13 -2
27 -8 30 -13 4 -5 14 -9 22 -9 8 0 21 -5 28 -12 8 -7 18 -11 23 -8 5 4 9 0 9
-7 0 -10 2 -10 9 1 6 10 10 10 13 1 2 -7 19 -14 37 -16 18 -2 38 -7 44 -11 7
-4 19 -8 27 -8 8 0 14 -4 13 -10 -1 -5 13 -10 30 -10 18 1 41 -5 52 -12 12 -7
31 -11 43 -8 14 2 20 0 16 -7 -4 -7 4 -8 25 -3 17 4 31 3 31 -2 0 -5 16 -8 35
-7 20 2 34 0 31 -4 -2 -4 4 -8 15 -8 10 0 19 4 19 9 0 5 6 4 14 -2 17 -14 177
-11 169 3 -3 4 4 5 15 2 11 -4 23 -2 26 3 4 6 13 8 21 4 8 -3 15 0 15 7 0 7 8
9 21 5 13 -5 19 -3 15 3 -3 5 1 13 10 16 10 4 13 1 9 -7 -3 -6 2 -2 11 10 9
13 21 23 26 23 12 0 81 70 70 71 -4 1 -22 2 -39 4 -18 1 -38 6 -45 12 -7 5
-23 8 -35 7 -13 0 -23 3 -23 8 0 5 -10 4 -21 -3 -15 -8 -19 -8 -15 0 7 11 -6
15 -33 12 -7 -2 -11 1 -8 6 3 4 -9 8 -26 8 -25 0 -32 4 -33 20 0 11 5 26 10
34 8 11 8 13 -1 7 -16 -9 -17 6 -1 22 9 9 9 12 -2 12 -13 0 -13 2 0 10 13 8
13 10 1 10 -12 0 -12 3 -3 12 16 16 15 31 0 22 -9 -5 -9 -2 1 9 10 13 10 17 1
17 -9 0 -10 3 -1 14 9 11 6 13 -19 11 -17 -1 -30 2 -30 9 0 7 -4 6 -9 -2 -6
-11 -10 -10 -15 3 -5 15 -9 15 -23 4 -13 -11 -15 -11 -9 -1 6 10 1 11 -18 6
-15 -3 -26 -2 -26 4 0 5 -12 10 -27 11 -70 1 -65 -4 -67 59 -1 17 3 32 9 32 5
0 3 5 -5 10 -12 8 -13 11 -1 19 7 5 9 11 4 14 -11 7 -11 37 1 55 5 8 1 12 -12
12 -10 0 -22 3 -26 7 -12 12 -48 14 -40 2 3 -6 -4 -4 -17 4 -13 8 -32 13 -41
12 -10 -2 -18 1 -18 7 0 7 -5 6 -14 -1 -10 -8 -16 -8 -25 3 -7 8 -21 12 -33 8
-14 -3 -19 -1 -14 6 4 7 3 12 -2 12 -10 0 -9 70 1 87 4 7 3 14 -3 18 -7 4 -6
13 1 27 8 15 8 22 -1 28 -6 4 -12 11 -13 16 -1 5 -8 8 -14 8 -7 -1 -13 1 -13
5 0 3 -14 7 -32 8 -17 1 -36 7 -41 12 -7 7 -17 6 -30 0 -14 -8 -18 -8 -13 0 5
7 -6 11 -33 11 -23 0 -41 5 -41 11 0 5 -4 8 -8 5 -5 -3 -9 1 -9 9 0 8 5 11 11
8 6 -4 5 1 -3 10 -7 9 -10 17 -6 17 4 0 1 8 -6 17 -8 9 -9 14 -3 10 7 -4 14 0
18 8 3 8 1 15 -5 15 -6 0 -7 6 -3 12 5 7 8 26 9 43 2 50 15 84 31 78 8 -3 14
1 14 9 0 8 9 25 20 38 11 12 17 27 13 33 -4 6 0 8 11 4 9 -4 15 -3 12 2 -3 4
3 17 14 28 10 12 16 24 13 27 -4 3 2 6 12 6 10 0 15 3 12 6 -11 11 13 45 26
37 7 -4 5 2 -3 12 -14 17 -13 18 3 12 12 -5 16 -3 11 5 -4 6 2 17 12 25 10 8
18 15 16 16 -6 4 12 43 30 62 10 10 16 25 13 33 -2 7 -1 11 3 8 4 -2 15 9 25
25 9 17 11 27 5 23 -7 -4 -2 6 10 23 12 17 19 33 15 37 -3 3 -1 6 5 6 7 0 12
7 12 15 0 8 4 15 9 15 5 0 8 12 5 27 -4 21 -2 24 8 15 10 -8 13 -4 15 16 0 15
6 28 12 30 5 2 7 10 4 18 -3 8 0 14 6 14 6 0 10 3 9 8 -3 12 27 95 52 143 5
10 4 21 -3 28 -8 8 -7 11 5 11 11 0 16 7 13 20 -2 11 1 20 7 20 5 0 8 7 4 15
-3 8 0 15 7 15 8 0 6 4 -3 10 -8 5 -10 10 -3 10 6 0 10 13 9 29 -1 17 2 27 9
25 5 -2 12 10 14 28 8 66 10 1188 3 1188 -4 0 -8 12 -7 28 0 15 -4 30 -9 34
-5 3 -11 21 -13 40 -2 18 -8 35 -14 36 -6 3 -6 9 2 18 6 8 7 14 2 14 -5 0 -9
10 -10 22 -1 11 -6 24 -10 27 -4 3 -10 17 -12 31 -1 14 -8 28 -15 32 -6 4 -7
8 -2 8 5 0 1 9 -9 20 -9 10 -15 26 -12 35 4 8 2 15 -4 15 -6 0 -8 4 -4 9 3 5
1 12 -5 16 -6 4 -8 11 -5 16 4 5 -1 16 -9 25 -9 9 -14 20 -11 25 4 5 1 9 -5 9
-6 0 -8 5 -5 10 3 5 1 10 -5 10 -6 0 -9 4 -6 9 3 4 -3 19 -14 31 -11 12 -17
27 -14 31 3 5 0 9 -6 9 -6 0 -9 4 -5 9 3 5 -1 16 -9 24 -8 8 -12 17 -9 21 3 3
-2 8 -11 12 -9 3 -13 11 -10 16 4 6 -4 20 -17 30 -13 11 -18 17 -11 13 6 -3
12 -1 12 4 0 6 -5 11 -12 11 -6 0 -8 3 -5 6 4 4 -1 14 -11 23 -9 9 -18 22 -20
29 -3 16 23 44 33 34 4 -4 6 -2 5 3 -4 18 0 38 6 33 7 -8 120 103 117 114 -2
4 1 8 6 8 13 0 131 118 131 131 0 7 3 10 6 7 7 -8 73 55 67 65 -2 4 2 7 9 7 7
0 24 14 37 30 13 16 27 27 32 24 5 -3 6 2 3 11 -4 10 -2 15 7 13 8 -2 13 4 13
14 -1 10 4 14 11 11 7 -2 16 5 20 17 4 12 9 19 12 17 7 -8 61 47 55 57 -3 5 2
6 12 3 10 -4 15 -3 11 3 -3 6 1 13 9 16 9 3 16 13 16 21 0 8 4 11 10 8 6 -3
10 1 10 9 0 9 5 16 10 16 6 0 10 7 10 15 0 8 9 19 20 25 11 6 18 15 15 21 -4
5 0 9 8 9 9 0 13 9 12 25 -2 14 1 23 7 19 5 -3 12 3 15 15 3 11 10 18 15 15 6
-4 5 4 -2 16 -10 18 -9 21 1 15 9 -6 11 -2 7 13 -4 12 -2 20 3 16 5 -3 9 -2
10 3 0 4 3 19 5 33 10 53 11 186 2 198 -6 6 -7 12 -3 12 4 0 1 8 -6 17 -12 15
-12 16 1 8 12 -6 13 -5 3 6 -7 7 -13 21 -13 31 0 10 -5 18 -11 18 -5 0 -7 5
-4 10 3 6 1 10 -4 10 -6 0 -10 3 -10 8 1 4 1 14 0 22 -1 13 -2 13 -11 0 -8
-13 -10 -13 -10 2 0 20 -55 80 -64 71 -3 -4 -6 1 -6 10 0 9 -3 16 -7 16 -24
-4 -43 3 -40 14 1 6 -6 11 -15 9 -10 -2 -18 2 -18 9 0 6 -7 9 -15 5 -8 -3 -15
-1 -15 5 0 6 -4 8 -9 4 -5 -3 -12 -1 -16 5 -8 13 -176 10 -194 -4 -11 -8 -13
-8 -8 0 3 6 0 11 -8 11 -8 0 -12 -4 -10 -8 3 -4 -18 -12 -45 -19 -27 -7 -48
-16 -45 -20 3 -4 -2 -11 -11 -14 -8 -3 -12 -2 -9 4 3 6 -1 7 -9 4 -9 -3 -13
-10 -10 -16 3 -5 -1 -8 -9 -6 -9 2 -23 -6 -32 -17 -9 -11 -13 -13 -9 -5 4 8
-4 5 -17 -8 -13 -12 -41 -38 -61 -58 -21 -19 -38 -40 -38 -46 0 -6 -3 -9 -6
-5 -8 7 -34 -17 -34 -32 0 -6 -4 -10 -8 -8 -5 1 -35 -25 -67 -58 -32 -33 -62
-59 -67 -58 -4 2 -8 -3 -8 -10 0 -15 -35 -47 -53 -47 -8 0 -7 -4 3 -10 13 -8
12 -10 -2 -10 -10 0 -18 -4 -18 -9 0 -5 -9 -12 -19 -16 -12 -4 -18 -12 -14
-21 3 -9 -1 -14 -11 -14 -9 0 -19 -7 -22 -15 -4 -8 -13 -15 -21 -15 -8 0 -12
-4 -9 -8 6 -10 -30 -43 -38 -35 -3 4 -6 -1 -6 -9 0 -9 -7 -19 -16 -22 -8 -3
-13 -10 -9 -16 3 -5 -6 -12 -20 -16 -14 -3 -24 -9 -21 -12 3 -3 -3 -12 -14
-19 -11 -8 -18 -19 -15 -24 3 -5 -2 -6 -11 -2 -11 4 -15 2 -11 -4 4 -6 -5 -19
-20 -28 -19 -13 -28 -14 -31 -6 -2 6 -8 9 -13 5 -5 -3 -9 2 -9 10 0 9 -3 15
-7 15 -22 -4 -44 2 -39 9 3 5 -6 19 -19 30 -14 12 -25 17 -25 11 0 -5 -12 2
-27 16 -16 14 -35 32 -44 41 -9 8 -26 16 -37 17 -11 0 -18 5 -16 9 3 4 -1 8
-10 8 -8 0 -16 4 -18 9 -1 5 -10 11 -18 13 -8 2 -22 10 -30 18 -8 8 -22 16
-30 18 -8 2 -19 11 -24 19 -6 12 -10 13 -16 3 -6 -9 -13 -5 -25 13 -10 16 -23
24 -36 22 -13 -3 -19 2 -19 13 0 15 -2 15 -10 2 -6 -10 -10 -11 -10 -2 0 6 -9
12 -21 12 -11 0 -17 5 -14 10 3 6 -3 10 -14 10 -11 0 -23 5 -26 10 -3 6 -15
10 -26 10 -10 0 -19 4 -19 10 0 5 -3 9 -8 9 -18 -3 -33 2 -28 9 3 5 -1 9 -9 9
-8 0 -11 -5 -8 -11 4 -6 -3 -2 -15 8 -12 11 -35 21 -49 22 -15 2 -29 8 -31 14
-2 5 -8 8 -13 5 -4 -3 -22 1 -40 10 -17 9 -41 19 -52 21 -12 3 -26 6 -32 7 -5
2 -16 7 -24 11 -10 6 -12 5 -7 -2 5 -8 2 -10 -8 -6 -9 3 -16 10 -16 14 0 4
-18 7 -39 6 -22 -1 -37 2 -35 6 3 4 -272 8 -610 8 -339 0 -616 -4 -616 -8 0
-5 -16 -8 -36 -7 -28 2 -34 -1 -29 -14 3 -11 0 -10 -10 3 -12 16 -15 16 -15 5
0 -11 -9 -15 -30 -14 -16 1 -27 -2 -24 -7 3 -4 -2 -9 -10 -9 -16 -1 -28 -4
-43 -9 -5 -1 -11 -2 -15 -1 -5 0 -8 -3 -8 -8 0 -5 -11 -8 -25 -7 -13 2 -22 -1
-19 -5 3 -5 -2 -9 -10 -9 -9 0 -16 -6 -16 -12 0 -9 -3 -8 -10 2 -8 12 -10 12
-15 -2 -4 -10 -15 -15 -26 -13 -10 2 -26 -3 -34 -11 -8 -9 -15 -13 -15 -9 0 3
-15 -2 -32 -12 -18 -9 -36 -16 -40 -15 -5 1 -8 -3 -8 -9 0 -6 -6 -9 -14 -6 -8
3 -17 -1 -20 -9 -3 -9 -10 -12 -16 -9 -5 3 -10 1 -10 -5 0 -6 -4 -8 -10 -5 -5
3 -10 1 -10 -5 0 -6 -5 -8 -12 -4 -6 4 -16 0 -22 -8 -11 -15 -17 -18 -37 -18
-5 0 -7 -5 -4 -11 4 -6 1 -10 -6 -8 -28 3 -39 -2 -40 -18 0 -10 -3 -13 -5 -6
-4 8 -11 7 -24 -4 -10 -9 -17 -20 -15 -24 3 -4 -1 -7 -8 -6 -32 1 -48 -4 -42
-13 6 -9 2 -12 -27 -14 -7 -1 -28 -17 -47 -36 -19 -19 -36 -33 -38 -31 -3 1
-16 -6 -29 -18 -13 -12 -28 -21 -32 -21 -4 0 -15 -8 -24 -17 -29 -31 -47 -43
-63 -43 -8 0 -34 19 -56 43 -23 23 -47 41 -53 39 -6 -2 -8 -1 -4 3 10 10 -24
45 -36 38 -6 -4 -5 1 3 10 12 15 12 17 -4 11 -13 -5 -16 -4 -11 4 4 7 2 12 -4
12 -15 0 -41 26 -33 34 4 3 0 6 -7 6 -15 0 -60 46 -52 54 3 3 -2 6 -11 6 -9 0
-17 7 -17 17 0 9 -3 13 -6 10 -8 -7 -44 31 -44 45 0 5 -4 6 -10 3 -5 -3 -15 5
-22 19 -6 14 -17 26 -24 26 -7 0 -16 9 -19 21 -4 11 -9 18 -12 16 -6 -7 -53
41 -53 54 0 6 -5 7 -10 4 -6 -3 -10 1 -10 10 0 9 -4 14 -10 10 -5 -3 -16 7
-24 22 -8 15 -15 25 -16 21 0 -4 -26 18 -57 50 -31 31 -50 48 -42 36 8 -11 2
-7 -13 8 -15 15 -34 28 -41 28 -7 0 -19 9 -27 19 -7 11 -17 18 -21 15 -4 -2
-15 4 -25 13 -13 13 -18 15 -22 5 -3 -10 -7 -9 -16 4 -7 9 -25 17 -39 17 -15
0 -25 3 -22 7 3 4 -40 7 -95 7 -55 0 -100 -4 -100 -8 0 -5 -5 -9 -11 -9 -5 0
-7 5 -4 10 10 17 -1 11 -20 -10z m5398 -56 c9 -1 18 -2 20 -4 3 -3 30 -9 52
-12 11 -2 25 -9 31 -17 6 -8 16 -11 22 -7 11 6 16 -5 14 -26 -1 -3 5 -9 14
-12 10 -4 13 -1 9 7 -4 6 0 3 9 -7 8 -10 13 -23 10 -27 -3 -5 3 -6 12 -2 11 4
15 2 11 -4 -3 -5 3 -20 14 -31 13 -14 15 -22 7 -22 -10 0 -9 -3 1 -9 14 -9 19
-22 23 -63 1 -10 5 -18 9 -18 9 0 5 -113 -5 -129 -7 -11 -6 -12 5 -6 11 7 12
6 2 -7 -7 -8 -10 -18 -6 -21 3 -4 1 -7 -5 -7 -6 0 -9 -7 -6 -15 4 -8 1 -15 -6
-15 -7 0 -10 -7 -6 -15 3 -8 1 -15 -4 -15 -6 0 -10 -3 -9 -7 2 -16 -14 -53
-22 -53 -5 0 -9 -5 -9 -11 0 -16 -36 -59 -44 -52 -3 3 -6 -1 -6 -10 0 -9 -11
-24 -25 -33 -14 -9 -25 -22 -25 -30 0 -8 -6 -11 -17 -7 -9 4 -14 2 -10 -4 7
-11 -28 -45 -37 -36 -6 6 -10 -12 -7 -29 0 -5 -4 -8 -9 -8 -6 0 -24 -13 -39
-29 -16 -16 -32 -27 -36 -23 -4 4 -5 2 -3 -3 3 -12 -167 -185 -182 -185 -6 0
-9 -3 -9 -7 3 -18 -1 -36 -7 -30 -8 8 -44 -25 -38 -35 3 -4 0 -8 -5 -8 -14 0
-91 -77 -91 -90 0 -5 -3 -9 -7 -9 -18 3 -36 -1 -30 -7 8 -8 -25 -44 -41 -44
-7 0 -10 -4 -7 -10 3 -5 -2 -10 -11 -10 -10 0 -14 3 -11 6 4 4 -3 15 -15 25
-11 11 -17 19 -13 19 5 0 0 7 -11 15 -10 8 -15 15 -10 15 6 0 1 7 -10 15 -10
8 -16 15 -11 15 4 0 -6 14 -23 31 -16 18 -30 38 -30 45 0 7 -9 15 -20 19 -11
3 -19 9 -19 13 3 20 -3 31 -21 37 -11 4 -18 11 -15 16 4 5 -2 9 -11 9 -10 0
-15 3 -11 6 3 3 -17 29 -46 57 -29 28 -45 47 -37 43 8 -5 2 3 -14 15 -17 13
-48 42 -70 64 -22 22 -43 39 -47 38 -4 -1 -9 4 -12 11 -8 19 35 74 52 68 10
-3 12 0 7 14 -4 10 -4 15 0 12 3 -4 27 14 52 40 26 26 50 46 54 45 7 -3 11 9
10 27 0 3 6 11 14 18 8 7 14 10 14 6 0 -4 9 1 20 11 11 10 17 22 14 26 -5 8
10 13 29 10 4 0 7 8 7 19 0 11 4 19 8 18 11 -4 168 154 164 164 -1 5 3 8 9 8
6 0 39 29 74 65 34 36 68 65 74 65 8 0 11 7 7 15 -3 8 -2 14 2 13 16 -4 52 14
52 27 0 9 6 12 15 9 8 -4 15 -1 15 6 0 6 5 8 10 5 6 -3 10 -1 10 5 0 6 4 9 9
6 5 -4 11 -2 13 3 1 5 21 12 43 15 21 4 43 12 48 19 7 9 10 9 14 -1 2 -6 10
-9 16 -5 20 12 41 12 56 0 12 -10 14 -9 8 6 -5 13 -3 16 6 10 6 -4 20 -8 30
-9z m-5368 -4 c-8 -13 1 -13 25 0 13 7 21 7 25 0 4 -6 12 -7 18 -3 18 11 67
12 67 0 0 -5 7 -4 15 3 10 9 15 9 15 1 0 -6 5 -11 11 -11 5 0 7 6 3 13 -4 6 2
4 14 -6 11 -11 26 -16 31 -12 6 3 11 1 11 -5 0 -6 4 -9 8 -6 5 3 23 -4 41 -15
18 -11 37 -16 43 -13 7 4 8 2 4 -4 -4 -7 -2 -12 4 -12 6 0 23 -12 37 -27 14
-16 20 -19 13 -8 -7 11 3 3 22 -17 20 -21 38 -34 42 -31 3 3 6 1 6 -5 0 -15
136 -152 151 -152 5 0 7 -4 4 -10 -3 -5 -1 -10 5 -10 6 0 8 -5 5 -10 -4 -6 -3
-9 2 -8 11 4 79 -62 75 -74 -1 -5 2 -7 6 -4 5 3 18 -6 28 -19 10 -14 25 -25
32 -25 7 0 10 -4 7 -10 -3 -5 2 -10 11 -10 10 0 15 -3 12 -6 -4 -3 45 -57 108
-119 102 -102 129 -133 107 -123 -5 2 -21 -10 -38 -26 -16 -16 -23 -26 -15
-21 9 5 12 5 7 -1 -5 -5 -12 -9 -15 -9 -11 0 -57 -35 -47 -35 6 0 2 -5 -8 -11
-9 -6 -15 -14 -12 -20 3 -5 0 -6 -8 -3 -8 3 -20 -3 -28 -13 -13 -17 -13 -17 6
-4 11 8 2 -2 -19 -22 -22 -20 -35 -37 -30 -37 5 -1 -2 -7 -16 -15 -14 -8 -21
-14 -16 -15 5 0 -8 -15 -28 -34 -20 -19 -36 -38 -36 -41 0 -4 -10 -16 -22 -27
-13 -11 -16 -16 -8 -12 13 7 13 5 1 -9 -7 -9 -17 -14 -22 -11 -5 3 -9 2 -8 -3
5 -18 -22 -63 -36 -63 -9 0 -13 -4 -10 -10 3 -5 -3 -15 -14 -22 -16 -10 -18
-15 -8 -28 6 -8 8 -12 3 -8 -5 4 -15 0 -24 -8 -13 -14 -26 -4 -123 94 -59 60
-110 107 -113 104 -3 -3 -6 2 -6 11 0 10 -4 17 -10 17 -5 0 -10 7 -10 15 0 8
-3 14 -7 13 -11 -3 -53 25 -53 36 0 10 -40 46 -52 46 -4 0 -7 3 -7 8 3 18 -2
33 -9 28 -12 -7 -52 40 -44 50 4 4 1 4 -6 0 -7 -4 -15 -1 -18 8 -3 9 -10 13
-15 10 -5 -3 -9 0 -9 6 0 6 -49 59 -108 118 -60 59 -107 113 -104 120 2 7 -2
12 -8 12 -7 0 -10 7 -6 16 3 8 2 12 -3 9 -9 -5 -27 32 -23 48 1 4 -3 7 -9 7
-5 0 -7 5 -4 10 3 6 2 10 -4 10 -5 0 -8 9 -6 20 2 11 -1 20 -7 20 -5 0 -8 7
-5 15 4 8 2 17 -3 20 -9 6 -8 24 3 42 4 7 0 16 -10 22 -10 6 -13 11 -7 11 6 0
10 10 10 23 -1 12 0 27 3 32 6 11 12 33 13 53 1 6 5 12 9 12 4 0 10 7 13 16 6
15 4 15 -11 3 -15 -12 -15 -11 1 8 10 13 23 20 29 16 6 -3 7 -1 3 5 -4 7 2 22
13 34 12 12 21 26 21 31 0 5 7 7 15 3 8 -3 14 -2 14 2 -1 4 -1 14 0 22 1 13 2
13 11 0 7 -12 10 -12 10 -1 0 8 6 11 16 7 8 -3 12 -2 9 4 -6 9 7 14 21 8 3 -2
10 5 15 15 6 9 12 17 15 17 3 0 2 -4 -1 -10z m802 -4396 c-9 -9 25 -44 37 -37
6 3 8 3 4 -2 -4 -4 3 -16 15 -27 12 -11 15 -16 7 -12 -8 4 -4 -4 10 -18 14
-13 28 -23 33 -21 4 2 7 -3 7 -11 0 -8 9 -18 20 -21 11 -3 25 -15 31 -26 5
-11 14 -17 20 -14 5 4 9 -1 9 -9 0 -9 7 -16 16 -16 8 0 12 -4 9 -10 -3 -5 -1
-10 6 -10 6 0 22 -12 35 -26 14 -15 29 -22 37 -18 6 4 9 4 5 -1 -8 -8 15 -35
31 -35 6 0 15 -9 21 -20 6 -11 17 -20 25 -20 8 0 15 -5 15 -12 0 -6 3 -9 6 -5
4 3 12 1 19 -6 34 -33 66 -57 76 -57 6 0 17 -7 25 -15 14 -13 13 -15 -8 -15
-18 0 -20 -2 -8 -10 10 -6 11 -10 3 -10 -7 0 -16 1 -19 3 -3 1 -10 -6 -15 -16
-6 -9 -14 -15 -20 -12 -5 4 -9 1 -9 -5 0 -7 -7 -9 -16 -6 -12 5 -15 2 -10 -9
3 -9 2 -14 -3 -11 -12 8 -62 -19 -53 -28 4 -4 3 -7 -3 -5 -19 4 -64 -13 -69
-27 -3 -8 -12 -11 -22 -7 -11 4 -15 2 -11 -4 4 -6 0 -14 -9 -17 -10 -4 -13 -2
-7 6 4 7 -6 3 -21 -10 -16 -12 -33 -19 -40 -15 -6 4 -6 1 2 -9 10 -13 9 -15
-14 -10 -20 3 -25 2 -19 -7 5 -8 1 -11 -11 -9 -12 2 -18 -2 -16 -10 1 -8 -2
-11 -8 -7 -15 9 -81 -25 -73 -39 4 -6 -2 -4 -12 4 -11 9 -16 10 -11 3 7 -12
-6 -17 -41 -16 -7 0 -11 -4 -10 -11 1 -6 -6 -10 -15 -8 -10 2 -18 -1 -18 -7 0
-5 -11 -8 -25 -6 -20 2 -23 -1 -14 -11 8 -10 6 -12 -11 -9 -12 2 -23 -2 -26
-10 -3 -7 -14 -12 -24 -10 -10 2 -21 -3 -24 -10 -3 -8 -14 -12 -26 -10 -11 2
-20 -1 -20 -7 0 -5 -7 -8 -15 -4 -8 3 -15 1 -15 -4 0 -6 -3 -9 -7 -9 -22 4
-33 -2 -27 -13 5 -9 2 -9 -9 1 -13 10 -17 10 -17 1 0 -7 -6 -10 -14 -7 -7 3
-19 0 -25 -6 -7 -7 -17 -12 -24 -13 -7 0 -20 -2 -30 -2 -12 -1 -15 -6 -11 -15
5 -8 2 -8 -9 2 -13 11 -17 11 -17 1 0 -8 -3 -10 -7 -7 -3 4 -13 1 -21 -6 -13
-10 -14 -9 -7 3 7 12 6 13 -7 3 -8 -7 -18 -10 -21 -6 -4 3 -7 2 -7 -4 0 -6
-19 -9 -45 -8 -35 1 -45 -2 -46 -14 0 -10 -2 -12 -6 -3 -2 6 -11 12 -19 12 -9
0 -13 -3 -11 -7 3 -5 -41 -8 -96 -7 -61 0 -101 4 -100 10 1 6 -11 9 -26 8 -46
-3 -60 13 -18 21 23 5 34 11 30 19 -3 6 0 6 8 -2 15 -14 33 -16 25 -3 -3 4 6
7 19 5 14 -1 27 1 30 6 3 4 14 6 25 3 12 -3 21 0 22 8 4 38 3 45 -7 51 -6 5
-4 8 5 8 12 0 12 2 1 9 -10 7 -11 13 -1 31 7 12 8 20 2 16 -6 -3 -9 9 -8 30 1
27 8 41 26 53 14 9 21 11 17 4 -11 -18 24 -5 42 16 12 15 13 14 8 -1 -4 -10
-2 -18 3 -18 6 0 10 5 10 10 0 6 5 10 11 10 5 0 7 -6 3 -12 -6 -10 -5 -10 7
-1 9 7 33 15 54 19 22 3 46 11 55 17 16 12 28 53 13 44 -5 -3 -9 3 -9 13 0 10
4 16 8 14 4 -3 8 0 8 5 0 6 -4 11 -10 11 -5 0 -10 5 -10 11 0 5 4 8 8 5 5 -3
9 1 9 9 0 8 -3 12 -7 10 -4 -2 -7 11 -8 30 -1 29 2 35 19 35 12 0 17 4 13 11
-4 8 0 8 15 0 17 -10 22 -9 27 4 3 8 10 15 16 15 5 0 6 -4 3 -10 -7 -11 8 -14
19 -3 9 9 34 15 69 17 15 0 27 5 27 9 0 5 4 6 9 3 5 -4 17 -3 26 0 13 5 14 8
3 15 -8 6 -9 9 -1 9 12 0 12 24 0 36 -4 4 -2 13 4 21 9 10 8 13 -2 13 -11 0
-11 2 1 10 11 7 11 10 2 10 -10 0 -10 5 -1 21 8 15 8 19 0 15 -15 -10 -14 7 2
23 9 11 9 12 0 7 -9 -5 -11 -2 -7 9 4 9 9 13 12 11 3 -3 12 0 20 7 13 10 14 9
7 -3 -7 -12 -6 -13 7 -3 8 7 18 10 21 6 4 -3 7 -1 7 7 0 10 3 10 15 0 9 -7 15
-8 15 -2 0 6 8 9 18 8 9 -2 20 2 24 8 5 7 8 6 8 -3 0 -11 4 -10 16 5 8 10 13
13 9 7 -7 -15 11 -18 20 -4 3 6 14 8 25 6 11 -2 20 0 21 6 2 16 1 59 -1 64 -5
13 -3 52 4 63 4 7 2 12 -5 12 -8 0 -8 4 1 15 7 8 15 15 18 15 3 0 3 -3 -1 -6z
m3828 -41 c3 -18 0 -35 -6 -39 -8 -5 -8 -9 1 -14 8 -5 9 -13 4 -21 -5 -8 -9
-24 -10 -36 -1 -19 1 -21 14 -10 13 9 14 9 8 0 -5 -10 4 -13 33 -13 26 0 41
-5 42 -12 0 -9 2 -9 6 1 5 11 7 11 14 0 5 -8 22 -12 44 -11 24 3 35 -1 35 -10
0 -10 3 -9 10 2 6 10 10 11 10 3 0 -7 5 -13 11 -13 5 0 7 6 3 13 -4 7 -3 9 2
4 5 -5 9 -14 9 -20 1 -7 7 -11 15 -9 11 3 11 0 1 -12 -7 -8 -10 -20 -7 -25 4
-5 2 -12 -4 -16 -6 -4 -7 -12 0 -24 6 -12 5 -22 -2 -29 -9 -9 -9 -12 2 -12 11
0 11 -3 2 -12 -9 -9 -9 -15 1 -27 10 -12 9 -13 -3 -6 -13 8 -13 7 -1 -8 8 -10
28 -17 48 -17 22 0 32 -4 27 -11 -4 -8 0 -8 15 0 13 8 21 8 21 2 0 -6 13 -9
29 -7 23 3 28 0 23 -13 -5 -14 -3 -14 10 -3 11 9 18 10 23 2 3 -6 11 -8 16 -4
6 3 17 3 26 0 13 -5 13 -9 2 -23 -8 -10 -9 -14 -2 -10 8 5 11 0 10 -13 -1 -11
-4 -20 -7 -20 -3 0 -6 -9 -6 -20 0 -11 4 -20 9 -20 4 0 5 -5 1 -12 -14 -22
-10 -62 8 -80 14 -14 23 -16 43 -8 15 6 24 6 21 1 -3 -5 1 -11 9 -15 8 -3 15
0 15 7 0 8 3 9 8 1 4 -6 19 -10 34 -10 14 1 24 -2 22 -6 -2 -3 0 -9 6 -13 5
-3 10 -2 10 4 0 10 11 9 47 -3 19 -6 22 -14 20 -49 -1 -23 -6 -48 -11 -56 -7
-10 -6 -12 4 -6 10 6 12 4 6 -11 -10 -26 -10 -26 -2 -57 8 -26 28 -34 74 -28
6 1 12 -3 12 -9 0 -6 4 -8 10 -5 5 3 19 8 29 10 15 3 18 -1 14 -12 -4 -11 -2
-14 5 -9 7 4 20 3 29 -3 14 -8 11 -10 -20 -16 -20 -4 -35 -10 -32 -14 2 -4
-12 -6 -32 -4 -20 1 -42 -2 -49 -8 -8 -7 -14 -7 -19 1 -5 8 -11 8 -21 -1 -8
-6 -14 -7 -14 -2 0 5 -12 9 -27 10 -16 0 -39 3 -52 7 -17 6 -22 5 -16 -4 5 -8
-1 -7 -16 2 -13 8 -45 14 -71 14 -25 -1 -46 3 -45 8 1 6 -9 10 -23 10 -14 1
-30 7 -36 15 -8 11 -13 11 -18 2 -6 -9 -13 -8 -29 6 -11 10 -17 12 -13 6 5 -9
2 -11 -8 -7 -9 3 -14 10 -11 14 3 5 -3 7 -12 5 -10 -1 -23 2 -30 7 -7 5 -17 7
-23 3 -5 -3 -10 -1 -10 6 0 7 -3 10 -6 7 -3 -4 -22 0 -41 8 -19 9 -38 13 -41
9 -3 -3 -17 5 -30 17 -14 13 -22 16 -18 8 4 -8 1 -7 -7 3 -8 10 -28 20 -44 22
-15 2 -30 4 -33 5 -3 2 -9 2 -14 1 -5 -1 -4 4 2 12 10 12 8 14 -10 13 -13 0
-22 4 -21 11 2 7 -4 10 -12 7 -8 -3 -22 2 -32 11 -12 13 -18 14 -21 5 -3 -8
-7 -9 -11 -2 -3 6 -13 12 -21 14 -8 2 -23 12 -32 22 -13 14 -18 15 -19 5 0 -8
-4 -6 -9 6 -5 12 -9 14 -9 6 -1 -10 -6 -8 -18 6 -10 11 -24 18 -30 16 -7 -3
-13 0 -13 6 0 6 -7 11 -15 11 -8 0 -15 5 -15 11 0 8 -6 7 -17 -2 -9 -8 -14 -9
-11 -4 4 6 3 17 -3 25 -7 13 -9 13 -9 0 -1 -12 -3 -11 -11 3 -6 9 -14 15 -20
12 -5 -4 -9 -1 -9 5 0 6 -4 9 -9 5 -5 -3 -12 -1 -16 5 -4 6 -11 7 -17 4 -7 -4
-8 -2 -4 4 4 7 2 12 -4 12 -6 0 -8 5 -4 11 5 8 1 8 -14 0 -28 -15 -32 -14 -26
4 5 11 2 13 -10 9 -11 -4 -16 -1 -16 11 0 9 -5 13 -11 9 -7 -4 -20 4 -31 17
-11 13 -16 17 -12 9 5 -10 0 -9 -14 4 -21 18 -31 43 -14 32 14 -8 53 24 45 37
-5 9 -3 9 8 1 11 -9 17 -9 26 1 6 7 9 15 6 19 -3 3 4 4 15 1 12 -2 21 -1 19 3
-1 4 9 19 22 32 13 14 20 18 16 10 -9 -17 25 10 62 49 13 13 23 20 23 16 0 -5
7 0 16 11 8 10 12 13 8 5 -5 -9 -3 -12 4 -7 7 4 12 14 12 23 0 9 3 14 6 10 3
-3 28 17 56 44 27 27 53 49 58 49 4 0 15 11 24 25 9 14 20 24 24 21 5 -3 14 4
21 16 10 16 10 19 -1 12 -7 -4 -2 4 12 18 14 13 28 23 33 21 4 -2 7 4 7 13 0
26 8 13 15 -23z"/>
<path d="M5405 5370 c2 -3 -9 -4 -26 -2 -17 3 -29 0 -29 -7 0 -6 -7 -11 -15
-11 -8 0 -15 -4 -15 -10 0 -5 -7 -10 -17 -10 -9 0 -14 -3 -10 -6 3 -4 -1 -13
-9 -21 -8 -9 -13 -22 -10 -30 3 -8 1 -11 -4 -8 -6 3 -10 3 -11 -2 -6 -51 -5
-83 2 -83 5 0 4 -11 -1 -25 -6 -16 -6 -27 2 -31 7 -5 8 -2 3 7 -8 12 -6 12 9
0 13 -11 14 -16 4 -22 -7 -5 -8 -9 -3 -9 6 0 23 -11 38 -25 15 -14 27 -23 27
-19 0 4 10 -1 22 -12 13 -12 18 -13 13 -4 -7 12 -6 13 6 4 18 -14 82 -14 91 0
5 7 8 6 8 -4 0 -13 1 -13 10 0 5 8 13 15 17 16 19 2 43 17 43 26 0 6 10 19 22
29 14 13 16 19 7 19 -12 0 -12 2 1 10 8 5 15 20 16 35 0 14 4 28 7 32 4 3 2
12 -4 19 -6 8 -9 21 -5 29 3 9 0 15 -9 15 -8 0 -14 3 -14 8 3 19 -2 33 -11 27
-5 -3 -10 -1 -10 6 0 13 -49 59 -65 60 -5 0 -27 1 -47 3 -21 2 -35 0 -33 -4z
m5 -74 c0 -7 3 -7 8 -1 9 13 42 16 42 4 0 -5 5 -9 11 -9 6 0 17 -6 25 -14 8
-8 14 -19 14 -25 0 -6 6 -11 13 -11 8 0 7 -4 -3 -10 -10 -6 -11 -10 -2 -10 6
0 12 -9 12 -20 0 -11 -6 -20 -12 -20 -9 0 -8 -4 2 -10 12 -8 12 -10 -5 -10
-15 0 -17 -2 -6 -9 11 -7 9 -10 -8 -16 -11 -3 -28 -14 -37 -23 -18 -17 -48
-26 -38 -11 4 8 -35 14 -60 10 -5 -1 -6 5 -3 13 4 9 -2 17 -14 21 -11 4 -18 9
-15 12 3 4 0 13 -7 21 -9 13 -9 14 0 8 9 -5 11 -2 7 8 -3 9 -9 14 -13 12 -4
-3 2 15 13 39 11 24 23 43 26 43 18 -2 30 3 26 10 -3 5 1 9 9 9 8 0 15 -5 15
-11z"/>
<path d="M4750 4896 c0 -2 8 -10 18 -17 15 -13 16 -12 3 4 -13 16 -21 21 -21
13z"/>
<path d="M490 5370 c-21 -3 -34 -11 -32 -19 1 -7 -2 -10 -7 -7 -5 4 -12 2 -16
-4 -4 -6 -11 -7 -17 -4 -6 4 -8 2 -5 -3 4 -6 -2 -13 -13 -16 -13 -3 -18 -10
-14 -21 4 -9 1 -16 -6 -16 -7 0 -10 -8 -7 -20 3 -11 1 -20 -4 -20 -4 0 -5 -7
-2 -17 4 -10 2 -14 -4 -10 -12 8 -12 -11 0 -30 5 -7 5 -17 2 -23 -3 -5 -2 -10
4 -10 6 0 7 -7 4 -17 -4 -11 -3 -14 5 -9 7 4 12 1 12 -8 0 -9 5 -16 10 -16 6
0 10 -7 10 -16 0 -8 5 -12 10 -9 6 3 10 1 10 -6 0 -7 3 -9 7 -6 3 4 13 -2 21
-14 11 -16 17 -17 28 -8 9 7 14 8 14 1 0 -11 68 -10 87 1 6 4 14 1 16 -5 3 -8
6 -6 6 5 1 10 5 16 10 13 5 -3 12 1 15 9 3 8 11 14 18 13 7 -2 12 3 13 10 0 7
7 17 15 22 8 5 11 10 5 10 -5 0 -4 4 4 9 17 11 25 97 10 107 -8 5 -8 8 0 13 7
5 4 14 -9 29 -11 11 -20 28 -20 37 0 8 -6 15 -13 15 -8 0 -22 9 -33 21 -10 11
-26 18 -36 16 -10 -3 -18 -1 -18 4 0 9 -17 9 -80 -1z m56 -71 c-4 6 0 11 8 11
9 0 16 -5 16 -11 0 -5 4 -8 9 -4 5 3 12 -4 16 -14 4 -13 11 -18 22 -14 11 4
14 3 9 -6 -4 -6 -2 -19 6 -28 9 -12 9 -15 1 -9 -18 10 -16 1 3 -18 14 -14 14
-16 0 -16 -9 0 -13 -6 -10 -15 6 -15 -17 -45 -34 -45 -6 0 -12 -5 -14 -11 -2
-6 -22 -12 -45 -12 -30 -2 -44 3 -52 16 -7 10 -15 16 -19 13 -4 -2 -12 7 -19
20 -8 18 -8 22 0 17 7 -4 6 1 -2 10 -11 14 -11 20 0 34 9 11 10 14 2 9 -9 -5
-11 -2 -7 8 3 9 11 16 16 16 6 0 5 7 -2 15 -11 13 -10 14 5 9 14 -6 16 -4 10
6 -5 8 -4 11 2 7 6 -4 19 0 29 7 13 10 24 11 38 4 13 -7 16 -7 12 1z"/>
</g>
</svg>
